<svg width="296" height="70" viewBox="0 0 296 70" fill="none" xmlns="http://www.w3.org/2000/svg">
<mask id="path-1-inside-1_103_1499" fill="white">
<path fill-rule="evenodd" clip-rule="evenodd" d="M12 0H284C284 6.62742 289.373 12 296 12V58C289.373 58 284 63.3726 284 70H12C12 63.3726 6.62742 58 0 58V12C6.62742 12 12 6.62742 12 0Z"/>
</mask>
<path d="M284 0H285V-1H284V0ZM12 0V-1H11V0H12ZM296 12H297V11H296V12ZM296 58V59H297V58H296ZM284 70V71H285V70H284ZM12 70H11V71H12V70ZM0 58H-1V59H0V58ZM0 12V11H-1V12H0ZM284 -1H12V1H284V-1ZM296 11C289.925 11 285 6.07513 285 0H283C283 7.1797 288.82 13 296 13V11ZM297 58V12H295V58H297ZM285 70C285 63.9249 289.925 59 296 59V57C288.82 57 283 62.8203 283 70H285ZM12 71H284V69H12V71ZM0 59C6.07513 59 11 63.9249 11 70H13C13 62.8203 7.1797 57 0 57V59ZM-1 12V58H1V12H-1ZM11 0C11 6.07513 6.07513 11 0 11V13C7.1797 13 13 7.1797 13 0H11Z" fill="white" mask="url(#path-1-inside-1_103_1499)"/>
</svg>
