<svg width="48" height="48" fill="none" xmlns="http://www.w3.org/2000/svg"><g clip-path="url(#a)"><mask id="b" style="mask-type:luminance" maskUnits="userSpaceOnUse" x="0" y="0" width="48" height="48"><path d="M48 24C48 10.745 37.255 0 24 0S0 10.745 0 24s10.745 24 24 24 24-10.745 24-24z" fill="#e8e8e8"/></mask><g mask="url(#b)"><path fill-rule="evenodd" clip-rule="evenodd" d="M48 24c0 13.255-10.745 24-24 24S0 37.255 0 24 10.745 0 24 0s24 10.745 24 24zm-19-2a3 3 0 1 0 0-6 3 3 0 0 0 0 6zm3 7a3 3 0 1 1-6 0 3 3 0 0 1 6 0zm-13-7a3 3 0 1 0 0-6 3 3 0 0 0 0 6zm3 7a3 3 0 1 1-6 0 3 3 0 0 1 6 0z" fill="#e8e8e8"/></g></g><defs><clipPath id="a"><path fill="#e8e8e8" d="M0 0h48v48H0z"/></clipPath></defs></svg>