<svg width="36" height="36" fill="none" xmlns="http://www.w3.org/2000/svg"><path d="M28.522 5.4H7.478A7.52 7.52 0 0 0 2.19 7.567 7.357 7.357 0 0 0 0 12.797v10.407c0 1.962.789 3.843 2.19 5.23A7.52 7.52 0 0 0 7.479 30.6h21.044c.982 0 1.954-.191 2.862-.563a7.485 7.485 0 0 0 2.426-1.604 7.394 7.394 0 0 0 1.62-2.4c.377-.897.57-1.86.57-2.83V12.796a7.357 7.357 0 0 0-2.19-5.23A7.521 7.521 0 0 0 28.521 5.4zm-5.056 13.107-9.843 4.644a.397.397 0 0 1-.518-.164.387.387 0 0 1-.049-.19v-9.579c0-.291.312-.48.575-.348l9.844 4.934a.395.395 0 0 1 .217.354.387.387 0 0 1-.227.349z" fill="#fff"/></svg>