<svg width="36" height="36" viewBox="0 0 36 36" fill="none" xmlns="http://www.w3.org/2000/svg">
<g clip-path="url(#clip0_1356_10048)">
<circle cx="18" cy="18" r="18" fill="#EBEBEB"/>
<g clip-path="url(#clip1_1356_10048)">
<path d="M16.5 18.7509C16.8221 19.1815 17.233 19.5378 17.7049 19.7957C18.1768 20.0535 18.6986 20.2068 19.235 20.2452C19.7713 20.2836 20.3097 20.2062 20.8135 20.0183C21.3173 19.8303 21.7748 19.5363 22.155 19.1559L24.405 16.9059C25.0881 16.1987 25.4661 15.2514 25.4575 14.2682C25.449 13.285 25.0546 12.3444 24.3593 11.6491C23.664 10.9539 22.7235 10.5595 21.7403 10.5509C20.757 10.5424 19.8098 10.9204 19.1025 11.6035L17.8125 12.886" stroke="black" stroke-width="1.5" stroke-linecap="round" stroke-linejoin="round"/>
<path d="M19.4958 17.2499C19.1737 16.8193 18.7627 16.463 18.2908 16.2052C17.8189 15.9474 17.2971 15.7941 16.7608 15.7557C16.2244 15.7173 15.6861 15.7946 15.1822 15.9826C14.6784 16.1705 14.2209 16.4646 13.8408 16.8449L11.5908 19.0949C10.9077 19.8022 10.5297 20.7494 10.5382 21.7327C10.5468 22.7159 10.9412 23.6565 11.6364 24.3517C12.3317 25.047 13.2723 25.4414 14.2555 25.45C15.2387 25.4585 16.186 25.0805 16.8933 24.3974L18.1758 23.1149" stroke="black" stroke-width="1.5" stroke-linecap="round" stroke-linejoin="round"/>
</g>
</g>
<defs>
<clipPath id="clip0_1356_10048">
<rect width="36" height="36" fill="white"/>
</clipPath>
<clipPath id="clip1_1356_10048">
<rect width="18" height="18" fill="white" transform="translate(9 9)"/>
</clipPath>
</defs>
</svg>
