<svg width="508" height="114" viewBox="0 0 508 114" fill="none" xmlns="http://www.w3.org/2000/svg">
<path fill-rule="evenodd" clip-rule="evenodd" d="M97.4909 56.9996C97.4909 24.2951 118.426 0 151.435 0C184.445 0 205.532 24.2951 205.532 56.9996C205.532 89.704 184.597 113.999 151.435 113.999C118.273 113.999 97.4909 89.704 97.4909 56.9996ZM178.023 56.9996C178.023 37.1317 169.315 21.8497 151.588 21.8497C133.86 21.8497 125 37.1317 125 56.9996C125 76.8674 134.013 91.9909 151.588 91.9909C169.163 91.9909 178.023 76.8613 178.023 56.9996ZM0 2.14151H52.7187C64.0247 2.14151 72.434 4.89178 78.2395 9.63006C84.5023 14.8257 87.716 21.8569 87.716 30.5651C87.716 41.4137 82.063 48.2924 72.434 51.9574V52.4148C84.356 56.0798 91.997 66.1662 91.997 79.1553C91.997 90.1564 88.021 98.1023 80.8434 103.603C74.4281 108.646 65.409 111.396 53.9505 111.396H0V2.14151ZM48.7488 45.3836C56.5422 45.3836 61.8903 41.5662 61.8903 34.3825C61.8903 27.1989 56.8471 23.5339 48.9012 23.5339H26.7466V45.3836H48.7488ZM50.8892 89.7051C59.7498 89.7051 65.2565 84.6619 65.2565 76.8685C65.2565 68.1603 58.8412 63.7269 50.5843 63.7269H26.7466V89.7051H50.8892ZM264.063 0C231.054 0 210.119 24.2951 210.119 56.9996C210.119 89.704 230.901 113.999 264.063 113.999C297.225 113.999 318.16 89.704 318.16 56.9996C318.16 24.2951 297.073 0 264.063 0ZM264.216 21.8497C281.943 21.8497 290.651 37.1317 290.651 56.9996C290.651 76.8613 281.791 91.9909 264.216 91.9909C246.641 91.9909 237.628 76.8674 237.628 56.9996C237.628 37.1317 246.488 21.8497 264.216 21.8497ZM321.977 77.0199H349.175C350.401 88.021 357.579 92.6068 370.568 92.6068C379.428 92.6068 388.143 89.3991 388.143 81.1483C388.143 72.7571 379.915 70.7473 365.916 67.3275C365.387 67.1983 364.85 67.0671 364.305 66.9335C345.358 62.5001 325.338 56.6947 325.338 33.7717C325.338 10.8486 344.285 0.152454 368.732 0.152454C393.18 0.152454 410.755 10.8486 411.828 33.7717H385.392C384.325 25.3684 377.904 20.6301 367.817 20.6301C358.341 20.6301 352.078 24.7586 352.078 30.8689C352.078 38.4622 360.377 40.3223 376.525 43.942L376.83 44.0105C397.156 48.7488 415.493 55.0116 415.493 78.392C415.493 101.772 395.93 113.999 370.72 113.999C341.687 113.999 322.587 101.163 321.971 77.0199H321.977ZM416.413 25.0645H448.197H448.203V111.402H475.248V25.0645H507.337V2.14151H416.413V25.0645Z" fill="white"/>
</svg>
