<svg width="648" height="114" viewBox="0 0 648 114" fill="none" xmlns="http://www.w3.org/2000/svg">
<path fill-rule="evenodd" clip-rule="evenodd" d="M53.7919 0C21.2399 0 0 24.6 0 57.152C0 89.8504 21.8497 113.847 53.9444 113.841C69.3727 113.841 80.5324 109.56 88.9357 101.461C96.4242 94.2777 101.315 84.3438 102.077 73.4951H75.0319C73.8122 84.0388 65.8663 91.6798 53.7919 91.6798C37.5952 91.6798 27.5088 77.0077 27.5088 57.1459C27.5088 37.2842 35.9121 22.4596 53.6395 22.4596C65.2565 22.4596 72.8914 29.9481 74.2696 39.7296H101.315C99.9429 27.5088 94.4423 16.8126 84.9658 9.62901C77.1723 3.665 66.4761 0 53.7919 0ZM159.687 0C126.684 0 105.749 24.2951 105.749 56.9996H105.742C105.742 89.704 126.525 113.999 159.687 113.999C192.849 113.999 213.784 89.704 213.784 56.9996C213.784 24.2951 192.69 0 159.687 0ZM159.845 21.8558C177.573 21.8558 186.281 37.1317 186.281 56.9996C186.281 76.8613 177.42 91.9909 159.845 91.9909C142.27 91.9909 133.257 76.8613 133.257 56.9996C133.257 37.1378 142.118 21.8558 159.845 21.8558ZM217.76 77.0199H244.957C246.183 88.021 253.361 92.6068 266.35 92.6068C275.21 92.6068 283.925 89.3991 283.925 81.1483C283.925 72.7571 275.697 70.7473 261.698 67.3275C261.169 67.1983 260.632 67.0671 260.087 66.9335C241.14 62.5001 221.12 56.6947 221.12 33.7717C221.12 10.8486 240.067 0.152454 264.514 0.152454C288.962 0.152454 306.537 10.8486 307.61 33.7717H281.174C280.107 25.3684 273.686 20.6301 263.599 20.6301C254.123 20.6301 247.86 24.7586 247.86 30.8689C247.86 38.4622 256.159 40.3223 272.307 43.942L272.613 44.0105C292.938 48.7487 311.275 55.0116 311.275 78.3919C311.275 101.772 291.712 113.999 266.502 113.999C237.469 113.999 218.369 101.162 217.753 77.0199H217.76ZM357.121 2.1415H320.752H320.74V111.402H345.035V56.5433C345.035 52.116 344.577 34.5411 344.577 34.5411H344.882C344.882 34.5411 348.706 51.0427 349.926 55.0187L365.513 111.408H387.826L403.565 54.8663C404.791 50.8903 408.608 34.5411 408.608 34.5411H408.913C408.913 34.5411 408.456 51.9574 408.456 56.3908V111.402H433.214V2.1415H396.54L383.094 49.9694C381.264 56.8482 376.983 74.8804 376.983 74.8804H376.678C376.678 74.8804 372.403 56.8482 370.415 49.9694L357.121 2.1415ZM442.239 56.9996C442.239 24.2951 463.174 0 496.183 0C529.192 0 550.28 24.2951 550.28 56.9996C550.28 89.704 529.345 113.999 496.183 113.999C463.021 113.999 442.239 89.704 442.239 56.9996ZM522.771 56.9996C522.771 37.1317 514.063 21.8558 496.335 21.8558C478.608 21.8558 469.747 37.1378 469.747 56.9996C469.747 76.8613 478.761 91.9909 496.335 91.9909C513.91 91.9909 522.771 76.8613 522.771 56.9996ZM581.449 77.0199H554.251C554.867 101.162 573.966 113.999 603 113.999C628.209 113.999 647.772 101.772 647.772 78.3919C647.772 55.0116 629.435 48.7487 609.11 44.0105L608.804 43.942C592.656 40.3223 584.357 38.4622 584.357 30.8689C584.357 24.7586 590.62 20.6301 600.097 20.6301C610.183 20.6301 616.604 25.3684 617.672 33.7717H644.107C643.034 10.8486 625.465 0.152454 601.011 0.152454C576.558 0.152454 557.611 10.8486 557.611 33.7717C557.611 56.6947 577.631 62.5001 596.578 66.9335C597.123 67.0671 597.66 67.1983 598.189 67.3275C612.189 70.7473 620.416 72.7571 620.416 81.1483C620.416 89.3991 611.702 92.6068 602.841 92.6068C589.852 92.6068 582.674 88.021 581.449 77.0199Z" fill="white"/>
</svg>
