<svg width="705" height="114" viewBox="0 0 705 114" fill="none" xmlns="http://www.w3.org/2000/svg">
<path fill-rule="evenodd" clip-rule="evenodd" d="M0 56.9996C0 24.2951 20.935 0 53.9444 0C86.9538 0 108.041 24.2951 108.041 56.9996C108.041 89.704 87.1062 113.999 53.9444 113.999C20.7826 113.999 0 89.704 0 56.9996ZM80.5324 56.9996C80.5324 37.1317 71.8242 21.8497 54.0968 21.8497C36.3695 21.8497 27.5088 37.1317 27.5088 56.9996C27.5088 76.8674 36.5219 91.9909 54.0968 91.9909C71.6718 91.9909 80.5324 76.8613 80.5324 56.9996ZM112.621 56.9996C112.621 24.2951 133.556 0 166.565 0C199.575 0 220.662 24.2951 220.662 56.9996C220.662 89.704 199.727 113.999 166.565 113.999C133.403 113.999 112.621 89.704 112.621 56.9996ZM193.153 56.9996C193.153 37.1317 184.445 21.8497 166.718 21.8497C148.99 21.8497 140.13 37.1317 140.13 56.9996C140.13 76.8674 149.143 91.9909 166.718 91.9909C184.293 91.9909 193.153 76.8613 193.153 56.9996ZM278.881 2.1415H229.675H229.669V111.402H257.177V74.8804H282.698C305.158 74.8804 319.678 60.0558 319.678 39.1208C319.678 28.1197 315.708 18.8017 308.677 12.2279C301.956 5.8065 292.175 2.1415 278.881 2.1415ZM292.48 38.9683C292.48 47.6826 286.979 53.4881 277.198 53.4881H257.177V24.9121H277.198C286.827 24.9121 292.48 30.2541 292.48 38.9683ZM348.87 2.1415H376.683L416.108 111.402H387.684L381.269 91.687H343.064L336.801 111.402H309.603L348.87 2.1415ZM375 72.2826L366.749 45.8471C364.914 40.1941 362.469 30.4126 362.469 30.4126H362.164C362.164 30.4126 359.566 40.1941 357.73 45.8471L349.327 72.2826H375ZM474.632 2.1415H422.383V111.402H449.428V70.4471H465.777C477.388 70.4471 482.584 75.9476 483.962 86.034C484.549 89.8324 484.875 93.8744 485.175 97.5962V97.5965L485.175 97.5971C485.731 104.505 486.198 110.309 488.085 111.402H514.368V110.024C512.012 109.179 511.689 103.636 511.251 96.1449C510.979 91.4758 510.662 86.05 509.782 80.5334C508.257 69.6787 503.367 63.7208 493.89 60.5132V60.0558C506.574 55.6224 512.837 46.3044 512.837 33.6202C512.837 13.2951 496.329 2.1415 474.632 2.1415ZM485.938 37.1328C485.938 45.3836 480.437 50.4268 469.741 50.4268H449.416V23.5339H470.351C480.742 23.5339 485.938 28.882 485.938 37.1328ZM549.665 25.0645H517.881V2.1415H608.805V25.0645H576.716V111.402H549.671V25.0645H549.665ZM637.832 77.0199H610.634C611.25 101.162 630.349 113.999 659.383 113.999C684.592 113.999 704.155 101.772 704.155 78.3919C704.155 55.0116 685.818 48.7487 665.493 44.0105L665.187 43.942C649.039 40.3223 640.74 38.4622 640.74 30.8689C640.74 24.7586 647.003 20.6301 656.48 20.6301C666.566 20.6301 672.987 25.3684 674.055 33.7717H700.49C699.417 10.8486 681.842 0.152454 657.395 0.152454C632.947 0.152454 613.994 10.8486 613.994 33.7717C613.994 56.6947 634.014 62.5001 652.961 66.9335C653.506 67.0671 654.044 67.1983 654.572 67.3275C668.572 70.7473 676.799 72.7571 676.799 81.1483C676.799 89.3991 668.085 92.6068 659.224 92.6068C646.235 92.6068 639.057 88.021 637.832 77.0199Z" fill="white"/>
</svg>
