<svg xmlns="http://www.w3.org/2000/svg" width="1192" height="502" fill="none"><g fill="#594D6D" stroke="#594D6D" stroke-miterlimit="10" stroke-width="4.358" clip-path="url(#a)"><path d="m334.137 148.941 16.864 3.006v2.092h-65.755v-2.092l19.434-3.006-4.837-119.179-44.141 114.821c-3.748 1.09-10.763 1.09-14.859.087L196.527 31.113l-2.353 66.409c-.654 17.43-1.09 34.206-1.09 50.155l19.13 4.27v2.092h-43.14v-2.092l15.774-4.27c1.264-15.861 2.441-32.638 3.356-49.98l3.834-74.166-17.691-4.009v-2.091h46.974l39.043 98.393 38.782-98.393h46.669v2.091l-16.863 3.443 5.185 126.019zM444.555 142.798c-4.924 8.192-13.595 13.421-22.789 13.421s-14.424-3.748-15.513-12.942l-9.325 6.188c-5.011 3.094-11.112 7.277-20.699 7.277-13.944 0-25.099-8.192-25.099-22.703 0-15.251 11.243-21.613 54.992-27.539l.262-19.958c.261-12.942-3.007-24.097-19.609-24.097-4.271 0-8.28.915-11.853 2.484a88.6 88.6 0 0 0 2.571 26.189c-3.922 2.353-8.41 3.442-12.855 3.442-7.494 0-13.595-3.835-13.595-11.678 0-15.426 27.017-27.714 48.586-27.714 21.57 0 31.026 11.94 30.634 31.461l-1.177 45.711c-.174 7.015 1.438 11.591 6.754 11.591 2.266 0 4.663-.567 7.931-2.179l.828 1.002zm-38.825-2.702.348-29.631c-25.186 4.183-29.282 9.761-29.282 19.87 0 9.325 5.011 14.859 12.332 14.859 5.577 0 10.588-1.743 16.602-5.098Z"/><path d="M444.377 154.039v-2.004l12.114-3.007V78.436c-4.184-2.44-8.759-5.36-12.942-8.41v-.566c12.68-4.184 24.794-9.02 37.126-14.685h.349v94.297l12.113 3.006v2.005H444.42zm9.281-127.501c0-8.672 4.924-13.116 14.772-13.116s14.947 4.444 14.947 13.116c0 8.671-5.012 12.68-14.947 12.68s-14.772-4.183-14.772-12.68ZM497.8 149.374c1.264-9.02 1.743-18.781 2.004-28.368h2.658c6.667 20.524 18.128 31.636 32.464 31.636 8.759 0 14.511-4.924 14.511-13.944 0-9.499-6.101-14.118-17.779-19.609l-9.02-4.357c-15.513-7.408-25.056-15.208-25.056-30.547 0-17.038 12.768-29.108 38.477-29.108 10.022 0 19.522 1.743 27.888 5.447 0 8.671.479 17.779 1.482 27.365l-2.571.436C552.443 67.278 541.767 59.13 530.22 59.13c-7.495 0-12.855 4.183-12.855 12.114 0 9.02 7.277 14.772 18.171 19.696l7.756 3.66c12.332 5.926 26.276 13.116 26.276 32.115s-13.769 30.023-38.302 30.023c-12.506 0-24.359-2.571-33.553-7.364zM575.711 105.89c0-31.941 18.345-50.722 47.584-50.722s47.584 18.78 47.584 50.722c0 31.94-18.258 50.808-47.584 50.808s-47.584-18.781-47.584-50.808Zm68.239 0c0-32.377-6.842-47.149-20.698-47.149s-20.699 14.772-20.699 47.149c0 32.376 6.929 47.235 20.699 47.235 13.769 0 20.698-14.772 20.698-47.235ZM768.139 149.03l10.763 3.006v2.005h-47.061v-2.005l11.853-3.006V88.852c0-11.678-4.184-17.866-15.949-17.866-6.493 0-11.765 2.005-17.343 6.188v71.856l11.678 3.006v2.005h-48.063v-2.005l11.94-3.006V78.612c-4.271-2.484-8.41-5.36-12.594-8.584v-.567c12.288-4.4 21.875-8.497 33.945-14.685h.523c1.569 6.493 2.353 13.03 2.484 19.348 6.58-12.855 17.517-18.955 30.111-18.955 20.523 0 27.713 14.597 27.713 34.947zM902.7 142.276a224 224 0 0 1 14.423 7.277v.74c-13.334 1.569-25.535 3.748-37.126 6.667-1.002-6.187-1.438-11.852-1.481-17.037-5.36 10.675-14.511 16.602-27.54 16.602-23.182 0-38.128-18.868-38.128-47.062 0-33.64 19.434-54.076 51.549-54.076 4.924 0 9.5.479 13.77 1.568V24.318c-4.488-2.484-9.02-5.447-13.421-8.585v-.74c13.116-3.922 24.62-7.844 37.474-12.855h.523v140.094zm-24.49-4.663-.087-65.842c-3.573-8.933-9.412-11.94-16.253-11.94-14.424 0-23.357 13.77-23.357 40.961 0 30.023 11.112 41.571 25.448 41.571 5.273 0 9.848-1.482 14.249-4.75ZM999.312 125.934c-5.926 22.093-20.698 30.808-38.128 30.808-30.285 0-45.885-22.441-45.885-51.245s16.689-50.329 46.8-50.329c23.966 0 36.646 10.502 36.864 29.718 0 3.66-.261 7.277-1.176 10.763l-57.737-.479v1.002c0 28.193 12.767 42.878 31.94 42.878 10.197 0 18.345-3.922 26.015-13.595l1.263.523zm-59.132-34.73 34.294-1.002c.828-4.27 1.176-8.41 1.176-11.94 0-12.287-4.488-19.52-14.51-19.52-12.332 0-19.958 11.198-20.96 32.463ZM3.092 406.473c2.266-20.568 2.702-41.745 3.007-64.143h4.967c16.69 51.68 44.622 72.684 75.56 72.684 26.145 0 38.913-14.555 38.913-37.388 0-31.548-24.925-43.401-47.933-54.818l-18.912-9.455c-15.774-7.975-56.343-25.666-56.473-73.73 0-39.522 25.666-71.942 90.593-71.942 21.308 0 43.836 3.747 62.051 12.157.435 20.873 2.266 40.089 4.488 62.792l-4.227.436c-18.781-47.628-45.492-66.975-74.644-66.975-23.139 0-36.647 11.721-36.647 33.204 0 29.283 27.496 42.66 44.621 50.634l14.859 7.06c35.165 16.689 65.494 34.38 65.494 82.008s-30.939 74.209-89.373 74.209c-26.145 0-55.428-5.404-76.3-16.69zM294.048 245.154h63.837v3.748l-18.781 6.144L298.1 380.63c-18.476 56.037-47.453 114.167-90.724 114.167-16.515 0-26.145-8.846-26.145-21.309q0-6.993 3.138-12.157c41.004 6.754 70.156-4.968 89.373-41.919-8.716.61-18.041.174-26.756-1.656l-57.388-163.407-19.086-5.404v-3.747h100.179v3.747l-30.938 5.404 34.555 98.393 11.242 34.38c3.617-12.157 7.06-23.574 10.676-36.036 10.066-32.9 19.217-63.707 27.322-95.997l-29.588-6.144v-3.747z"/><path d="m520.286 409.348 19.391 5.403v3.617h-84.71v-3.617l21.308-5.403V301.063c0-21.003-7.494-32.158-28.672-32.158-11.722 0-21.178 3.616-31.243 11.111v129.332l21.046 5.403v3.617H350.91v-3.617l21.482-5.403V282.587c-7.669-4.532-15.164-9.63-22.703-15.469v-1.046c22.093-7.974 39.349-15.338 61.136-26.45h.916c2.832 11.722 4.226 23.444 4.488 34.86 11.852-23.138 31.548-34.119 54.207-34.119 36.952 0 49.85 26.276 49.85 62.922zM692.712 367.734c-10.675 39.784-37.256 55.427-68.631 55.427-54.512 0-82.618-40.394-82.618-92.248s30.023-90.55 84.274-90.55c43.096 0 65.93 18.912 66.409 53.467 0 6.624-.436 13.073-2.092 19.391l-103.927-.915v1.787c0 50.765 22.965 77.215 57.52 77.215 18.345 0 33.03-7.059 46.843-24.489l2.266.915zm-106.497-62.487 61.746-1.787c1.481-7.669 2.091-15.164 2.091-21.482 0-22.093-8.105-35.166-26.145-35.166-22.223 0-35.906 20.132-37.692 58.435ZM830.065 262.15c0 8.28-2.397 16.69-9.151 23.575-18.912-8.41-38.303-6.449-53.031 5.272v118.351l29.762 5.403v3.617h-95.212v-3.617l21.482-5.403V282.587c-7.189-4.052-15.469-9.63-22.833-15.469v-1.046c19.391-7.19 40.264-16.21 58.87-26.45h.915c3.617 16.384 4.793 29.283 5.099 44.621 6.928-28.542 23.879-43.706 42.485-43.706 12.899 0 21.614 6.929 21.614 21.613ZM954.733 395.97c32.289 4.793 52.287 16.079 52.287 41.745 0 30.808-30.325 61.136-97.344 61.136-55.558 0-79.612-17.125-79.612-39.043 0-16.82 13.204-30.329 54.992-38.608-25.665-4.183-37.387-14.423-37.387-30.023s12.027-28.847 46.582-37.867c-31.984-5.273-52.552-23.879-52.552-55.558 0-36.342 27.017-57.389 72.378-57.389 13.683 0 25.666 1.961 35.906 5.578 28.106.435 38.434-4.489 53.637-13.204 4.19 3.312 6.32 7.8 6.32 12.637 0 9.02-5.27 14.118-16.817 14.554-8.715.305-20.132-2.091-32.289-6.754 16.689 9.325 25.84 24.794 25.84 45.057 0 35.601-25.971 56.778-71.812 56.778-4.183 0-8.279-.174-12.158-.61-9.63 5.709-13.987 12.332-13.987 19.827 0 8.541 6.449 13.073 25.099 15.774l41.004 6.014zm21.047 60.395c0-18.04-16.079-23.574-43.27-27.801l-41.135-6.318c-18.912 6.318-27.627 17.996-27.627 33.814 0 22.093 18.171 34.555 52.29 34.555 38.303 0 59.786-13.508 59.786-34.25zm-89.068-158.613c0 35.6 10.197 50.46 27.191 50.46s27.191-13.988 27.191-50.025-9.761-50.765-26.712-50.765c-16.95 0-27.626 13.508-27.626 50.33z"/><path d="M1125.98 245.154h63.84v3.748l-18.78 6.144-41 125.584c-18.48 56.037-47.46 114.167-90.73 114.167-16.51 0-26.14-8.846-26.14-21.309 0-4.662 1.04-8.715 3.14-12.157 41 6.754 70.15-4.968 89.37-41.919-8.72.61-18.04.174-26.76-1.656l-57.38-163.407-19.09-5.404v-3.747h100.18v3.747l-30.94 5.404 34.56 98.393 11.24 34.38c3.61-12.157 7.06-23.574 10.67-36.036 10.07-32.9 19.22-63.707 27.33-95.997l-29.59-6.144v-3.747z"/></g><defs><clipPath id="a"><path fill="#fff" d="M0 0h1192v501.028H0z"/></clipPath></defs></svg>