<svg xmlns="http://www.w3.org/2000/svg" width="117" height="24" fill="none"><g fill="#fff"><path d="M25.059 1.523a2.95 2.95 0 0 0-1.995-.941h-4.34a.28.28 0 0 0-.248.165.3.3 0 0 0 .026.299l7.816 9.457 3.08-3.738-4.337-5.248M25.055 21.695l5.248-6.355 5.25 6.348c.522.56 1.235.898 1.994.943h4.338a.3.3 0 0 0 .248-.172.31.31 0 0 0-.026-.303l-8.72-10.56 8.71-10.554a.297.297 0 0 0-.22-.469h-4.33a2.96 2.96 0 0 0-2.006.944c-2.966 3.603-8.115 9.835-17.043 20.64a.3.3 0 0 0 .072.425.3.3 0 0 0 .15.05h4.344a2.97 2.97 0 0 0 1.995-.944M5.863 1.322A.75.75 0 0 0 5.65.797.72.72 0 0 0 5.134.58H.738a.72.72 0 0 0-.52.215.74.74 0 0 0-.218.526v18.336a3 3 0 0 0 .862 2.107c.55.56 1.297.874 2.075.874h12.145c.381.008.759-.073 1.105-.236.346-.164.65-.406.89-.707l2.76-3.342a.3.3 0 0 0-.072-.428.3.3 0 0 0-.15-.05H6.6a.73.73 0 0 1-.521-.218.76.76 0 0 1-.217-.529zM109.66.171a8.06 8.06 0 0 0-3.752.995 8.2 8.2 0 0 0-2.876 2.642c-.866-3.653-4.473-4.82-6.73-2.171 0 0 .045.07.063.083 1.888 1.835 2.01 3.495 2.068 6.424V23.05h5.377V9.26s2.099-4.58 5.163-4.323c2.316.194 2.513 2.146 2.513 3.931v14.186h5.376V9.036c.257-7.275-4.706-8.94-7.202-8.874M86.603.17v19.056a21.3 21.3 0 0 1-.308 4.053c1.83.313 3.31 0 4.566-1.225.969-.932 1.108-1.893 1.14-4.325.02-1.538 0-17.564 0-17.564zM78.299 2.731c-.679 0-1.342.204-1.906.586a3.47 3.47 0 0 0-1.264 1.563 3.54 3.54 0 0 0-.196 2.012 3.5 3.5 0 0 0 .937 1.784c.48.488 1.09.82 1.755.955a3.4 3.4 0 0 0 1.981-.197 3.44 3.44 0 0 0 1.54-1.282 3.524 3.524 0 0 0-.424-4.399 3.4 3.4 0 0 0-1.111-.756 3.4 3.4 0 0 0-1.312-.266M78.299 13.86a3.4 3.4 0 0 0-1.906.585 3.47 3.47 0 0 0-1.264 1.563 3.54 3.54 0 0 0-.196 2.012c.131.676.458 1.297.937 1.784s1.09.82 1.755.955a3.4 3.4 0 0 0 1.981-.197 3.44 3.44 0 0 0 1.54-1.282 3.524 3.524 0 0 0-.424-4.399 3.4 3.4 0 0 0-1.111-.756 3.4 3.4 0 0 0-1.312-.266M59.087 22.77c2.391.514 5.273.805 7.707.451 3.781-.524 5.508-2.742 4.231-6.04-3.023 1.622-7.758 2.336-11.167.852L70.94.154H52.608V4.91h9.31L50.864 21.798c3.19.059 4.722.205 8.215.96"/></g></svg>