<svg width="655" height="159" viewBox="0 0 655 159" fill="none" xmlns="http://www.w3.org/2000/svg">
<path d="M176.102 123.155V90.6076H242.437V61.2535H176.102V34.023H253.45V2.96704H138.605V155.054H254.725V123.155H176.102Z" fill="white"/>
<path d="M262.708 2.98206H335.179C365.263 2.98206 388.16 18.51 388.16 46.7948C388.16 64.4464 379.472 77.4291 361.887 83.589V84.2216C375.031 88.6948 381.813 96.9784 383.929 112.085C387.11 132.071 384.994 151.228 390.291 153.141V155.054H353.845C349.824 152.719 350.454 134.842 348.128 119.751C346.223 105.714 339.02 98.0477 322.906 98.0477H300.234V155.054H262.723V2.98206H262.708ZM328.397 70.1847C343.237 70.1847 350.859 63.1662 350.859 51.6746C350.859 40.183 343.657 32.7428 329.252 32.7428H300.219V70.1847H328.397Z" fill="white"/>
<path d="M408.476 137.192C395.333 122.733 388.13 102.732 388.13 79.5527C388.13 56.3737 396.188 34.6706 410.592 20.212C423.091 7.45524 440.676 0 462.508 0C501.504 0 524.806 20.8446 529.683 52.744H493.237C490.491 40.4089 480.318 31.056 463.783 31.056C438.786 31.056 426.272 51.9005 426.272 79.5527C426.272 107.205 440.676 128.049 464.413 128.049C484.114 128.049 495.773 114.856 497.258 101.467V101.045H468.854V73.3927H532.008V155.069H505.735L503.62 136.77H503.2C493.237 152.298 478.412 158.458 460.182 158.458C438.575 158.458 420.975 150.807 408.476 137.192Z" fill="white"/>
<path d="M566.22 98.9062L514.933 2.98206H555.84L575.33 42.3367C580.41 52.759 585.29 65.5157 585.29 65.5157H585.71C585.71 65.5157 591.01 52.759 596.09 42.3367L615.37 2.98206H655L603.71 98.9062V155.054H566.2V98.9062H566.22Z" fill="white"/>
<path d="M0 91.8699V155H36.7453V84.2082C36.7453 78.8946 36.3092 59.3415 36.3092 59.3415H36.7453C36.7453 59.3415 45.0179 75.7035 47.5749 79.7376L92.1867 155H130V3H93.2396V75.0713C93.2396 80.3848 93.6758 98.6585 93.6758 98.6585H93.2396C93.2396 98.6585 85.1776 83.576 82.8312 79.3161L37.9938 3.33115L37.7982 3H0V66.7924" fill="white"/>
</svg>
