<svg width="255" height="159" viewBox="0 0 255 159" fill="none" xmlns="http://www.w3.org/2000/svg">
<path d="M76.0727 61.5849C53.401 56.4791 41.7425 53.9338 41.7425 43.2856C41.7425 34.7912 50.4301 29.0378 63.574 29.0378C77.5582 29.0378 86.4558 35.6346 87.9413 47.3371H124.597C123.112 15.4226 97.6942 0.542236 64.8494 0.542236C32.0046 0.542236 4.66639 14.79 4.66639 47.3371C4.66639 79.8841 32.4247 87.3243 58.6975 93.4843C79.4637 98.59 91.7524 101.15 91.7524 113.275C91.7524 124.751 79.6738 129.224 67.3851 129.224C49.3798 129.224 39.4168 122.838 37.7213 107.536H0C0.855256 141.138 27.3382 159 67.5952 159C102.571 159 129.684 141.348 129.684 109.449C129.684 77.5496 104.266 68.1816 76.0727 61.5849Z" fill="white"/>
<path d="M255 3H215.392L196.121 42.3321C191.036 52.7485 185.742 65.4979 185.742 65.4979H185.322C185.322 65.4979 180.448 52.7485 175.364 42.3321L155.883 3H115L166.261 98.8843V155H203.754V98.8843L249.616 13.0852" fill="white"/>
</svg>
